<?xml version="1.0"?>
<svg xmlns="http://www.w3.org/2000/svg" id="Layer_2" height="40px" viewBox="0 0 64 64" width="40px" data-name="Layer 2" class=""><g><path d="m32 9a23 23 0 1 0 23 23 23 23 0 0 0 -23-23zm12.912 18.69-6.312 6.31-3 3-4.023 4.023a3.332 3.332 0 0 1 -4.714 0l-7.777-7.777a3.333 3.333 0 0 1 4.714-4.714l5.421 5.421 10.979-10.976a3.333 3.333 0 0 1 4.713 4.713z" fill="#2ea6fc" data-original="#2EA6FC" class="" data-old_color="#2ea6fc" style="fill:#BB161E"/><g fill="#2057d1"><path d="m29.222 43a4.3 4.3 0 0 1 -3.064-1.27l-7.777-7.777a4.333 4.333 0 0 1 6.128-6.128l4.713 4.714 10.27-10.269a4.332 4.332 0 1 1 6.127 6.13l-6.309 6.31a1 1 0 0 1 -1.41-1.417l6.309-6.31a2.331 2.331 0 0 0 0-3.3 2.386 2.386 0 0 0 -3.3 0l-10.98 10.977a1 1 0 0 1 -1.414 0l-5.421-5.421a2.388 2.388 0 0 0 -3.3 0 2.331 2.331 0 0 0 0 3.3l7.777 7.778a2.388 2.388 0 0 0 3.3 0l4.029-4.024a1 1 0 0 1 1.414 1.414l-4.028 4.023a4.3 4.3 0 0 1 -3.064 1.27z" data-original="#2057D1" class="active-path" style="fill:#5E0B0F" data-old_color="#2057D1"/><path d="m32 56a24 24 0 1 1 18.194-8.348 1 1 0 1 1 -1.516-1.3 22 22 0 1 0 -16.678 7.648 21.76 21.76 0 0 0 13.7-4.782 1 1 0 0 1 1.246 1.565 23.747 23.747 0 0 1 -14.946 5.217z" data-original="#2057D1" class="active-path" style="fill:#5E0B0F" data-old_color="#2057D1"/></g></g> </svg>
